# AST/ASF file generated using VICON BodyLanguage
# -----------------------------------------------
:version 1.10
:name VICON
:units
  mass 1.0
  length 0.45
  angle deg
:documentation
   .ast/.asf automatically generated from VICON data using
   VICON BodyBuilder and BodyLanguage model FoxedUp or BRILLIANT.MOD
:root
   order TX TY TZ RX RY RZ
   axis XYZ
   position 0 0 0  
   orientation 0 0 0 
:bonedata
  begin
     id 1 
     name lhipjoint
     direction 0.645893 -0.654526 0.392961 
     length 2.38111 
     axis 0 0 0  XYZ
  end
  begin
     id 2 
     name lfemur
     direction 0.34202 -0.939693 0  
     length 6.6822  
     axis 0 0 20  XYZ
    dof rx ry rz
    limits (-160.0 20.0)
           (-70.0 70.0)
           (-60.0 70.0)
  end
  begin
     id 3 
     name ltibia
     direction 0.34202 -0.939693 0   
     length 6.93904   
     axis 0 0 20   XYZ
    dof rx
    limits (-10.0 170.0)
  end
  begin
     id 4 
     name lfoot
     direction 0.0694967 -0.190941 0.979138   
     length 2.13616   
     axis -90 7.62852e-016 20   XYZ
    dof rx rz
    limits (-45.0 90.0)
           (-70.0 20.0)
  end
  begin
     id 5 
     name ltoes
     direction 1.535e-011 -4.2202e-011 1   
     length 1.07536   
     axis -90 7.62852e-016 20   XYZ
    dof rx
    limits (-90.0 20.0)
  end
  begin
     id 6 
     name rhipjoint
     direction -0.700219 -0.612087 0.367481   
     length 2.54621  
     axis 0 0 0  XYZ 
  end
  begin
     id 7 
     name rfemur
     direction -0.34202 -0.939693 0   
     length 6.55353   
     axis 0 0 -20   XYZ
    dof rx ry rz
    limits (-160.0 20.0)
           (-70.0 70.0)
           (-70.0 60.0)
  end
  begin
     id 8 
     name rtibia
     direction -0.34202 -0.939693 0   
     length 6.8736   
     axis 0 0 -20   XYZ
    dof rx
    limits (-10.0 170.0)
 end
 begin
     id 9 
     name rfoot
     direction -0.0679995 -0.186827 0.980037   
     length 2.1218  
     axis -90 -7.62852e-016 -20   XYZ
    dof rx rz
    limits (-45.0 90.0)
           (-20.0 70.0)
  end
  begin
     id 10 
     name rtoes
     direction -1.53589e-011 -4.21772e-011 1   
     length 1.06864   
     axis -90 -7.62852e-016 -20   XYZ
    dof rx
    limits (-90.0 20.0)
  end
  begin
     id 11 
     name lowerback
     direction -0.0416607 0.996347 -0.0745409   
     length 2.12205   
     axis 0 0 0   XYZ
    dof rx ry rz
    limits (-20.0 45.0)
           (-30.0 30.0)
           (-30.0 30.0)
  end
  begin
     id 12 
     name upperback
     direction -0.000153993 0.999276 -0.0380568   
     length 2.12759   
     axis 0 0 0   XYZ
    dof rx ry rz
    limits (-20.0 45.0)
           (-30.0 30.0)
           (-30.0 30.0)
  end
  begin
     id 13 
     name thorax
     direction 0.0187671 0.999821 -0.00241421   
     length 2.13704   
     axis 0 0 0   XYZ
    dof rx ry rz
    limits (-20.0 45.0)
           (-30.0 30.0)
           (-30.0 30.0)
  end
  begin
     id 14 
     name lowerneck
     direction 0.0268157 0.964865 0.261374   
     length 1.65253   
     axis 0 0 0   XYZ
    dof rx ry rz
    limits (-20.0 45.0)
           (-30.0 30.0)
           (-30.0 30.0)
  end
  begin
     id 15 
     name upperneck
     direction 0.00263774 0.939908 -0.341418   
     length 1.72375   
     axis 0 0 0   XYZ
    dof rx ry rz
    limits (-20.0 45.0)
           (-30.0 30.0)
           (-30.0 30.0)
  end
  begin
     id 16
     name head
     direction -0.00526001 0.989001 -0.147818  
     length 1.74878  
     axis 0 0 0   XYZ
    dof rx ry rz
    limits (-20.0 45.0)
           (-30.0 30.0)
           (-30.0 30.0)
  end
  begin
     id 17 
     name lclavicle
     direction 0.881214 0.461162 -0.103884  
     length 3.25108  
     axis 0 0 0   XYZ
    dof ry rz
    limits (-20.0 10.0)
           (0.0 20.0)
  end
  begin
     id 18 
     name lhumerus
     direction 1 -4.4899e-011 3.38092e-027   
     length 4.87408   
     axis 180 -30 -90   XYZ
    dof rx ry rz
    limits (-60.0 90.0)
           (-90.0 90.0)
           (-90.0 90.0)
  end
  begin
     id 19
     name lradius
     direction 1 -4.48931e-011 9.96288e-027   
     length 2.76729   
     axis 180 -30 -90   XYZ
    dof rx
    limits (-10.0 170.0)
  end
  begin
     id 20
     name lwrist
     direction 1 -4.4896e-011 1.50617e-026   
     length 1.38364   
     axis -9.31234e-015 90 90   XYZ
    dof ry
    limits (-180.0 0.0)
 end
  begin
     id 21 
     name lhand
     direction 1 -4.49038e-011 3.01286e-026   
     length 0.98922   
     axis -1.92217e-014 90 90   XYZ
    dof rx rz
    limits (-90.0 90.0)
           (-45.0 45.0)
  end
  begin
     id 22 
     name lfingers
     direction 1 -4.49051e-011 6.02588e-026   
     length 0.797535   
     axis -3.84436e-014 90 90   XYZ
    dof rx
    limits (0.0 90.0)
  end
  begin
     id 23
     name lthumb
     direction 0.707107 -6.34901e-011 0.707107   
     length 1.14511   
     axis -90 45 2.19363e-014   XYZ
    dof rx rz
    limits (-45.0 45.0)
           (-45.0 45.0)
  end
  begin
     id 24 
     name rclavicle
     direction -0.893894 0.441652 -0.0767889   
     length 3.29361  
     axis 0 0 0   XYZ 
    dof ry rz
    limits (-10.0 20.0)
           (-20.0 0.0)
  end
  begin
     id 25 
     name rhumerus
     direction -1 -4.48945e-011 8.0491e-028  
     length 4.71404   
     axis 180 30 90   XYZ
    dof rx ry rz
    limits (-90.0 60.0)
           (-90.0 90.0)
           (-90.0 90.0)
  end
  begin
     id 26 
     name rradius
     direction -1 -4.48986e-011 9.27795e-027   
     length 2.83468   
     axis 180 30 90   XYZ
    dof rx
    limits (-10.0 170.0)
  end
  begin
     id 27 
     name rwrist
     direction -1 -4.49029e-011 1.5064e-026   
     length 1.41734   
     axis -9.31234e-015 -90 -90   XYZ
    dof ry
    limits (-180.0 0.0)
  end
  begin
     id 28
     name rhand
     direction -1 -4.48857e-011 3.01165e-026   
     length 0.868195   
     axis -1.92217e-014 -90 -90   XYZ
    dof rx rz
    limits (-90.0 90.0)
           (-45.0 45.0)
  end
  begin
     id 29
     name rfingers
     direction -1 -4.49048e-011 6.02585e-026   
     length 0.699961   
     axis -3.84436e-014 -90 -90   XYZ
    dof rx
    limits (0.0 90.0)
  end
  begin
     id 30
     name rthumb
     direction -0.707107 -6.34854e-011 0.707107   
     length 1.00501   
     axis -90 -45 -2.19363e-014   XYZ
    dof rx rz
    limits (-45.0 45.0)
           (-45.0 45.0)
  end
:hierarchy
  begin
    root lhipjoint rhipjoint lowerback
    lhipjoint lfemur
    lfemur ltibia
    ltibia lfoot
    lfoot ltoes
    rhipjoint rfemur
    rfemur rtibia
    rtibia rfoot
    rfoot rtoes
    lowerback upperback
    upperback thorax
    thorax lowerneck lclavicle rclavicle
    lowerneck upperneck
    upperneck head
    lclavicle lhumerus
    lhumerus lradius
    lradius lwrist
    lwrist lhand lthumb
    lhand lfingers
    rclavicle rhumerus
    rhumerus rradius
    rradius rwrist
    rwrist rhand rthumb
    rhand rfingers
  end

#!OML:ASF H:\ManfredObstacles\Project 1\Capture day 2\Session 1\male.ASF
:FULLY-SPECIFIED
:DEGREES
126
root 1.48658 16.9393 5.18231 -162.733 -0.361521 -181.992
lowerback -3.0695 4.5845 -3.59733
upperback -0.00133636 6.20473 -2.94506
thorax 1.65787 3.03994 -0.751222
lowerneck -34.378 -2.32981 -2.11981
upperneck 40.7399 -7.51063 4.24287
head 24.4434 -3.0655 0.19316
rclavicle 2.4699e-014 -5.4467e-014
rhumerus -32.3 19.0442 -92.2955
rradius 95.2297
rwrist 8.12253
rhand -9.51656 -3.83498
rfingers 7.12502
rthumb 16.4491 -33.1576
lclavicle 2.4699e-014 -5.4467e-014
lhumerus -70.4466 -29.0591 91.8408
lradius 95.3688
lwrist -16.4561
lhand -15.3154 6.94859
lfingers 7.12502
lthumb 10.8606 36.6478
rfemur 0.930396 3.55665 23.2317
rtibia 21.4966
rfoot 25.974 -12.3011
rtoes -14.4328
lfemur -40.1178 -9.2557 -18.3973
ltibia 33.7911
lfoot 8.3163 11.7994
ltoes -10.564
127
root 1.4744 16.9356 4.89945 -162.767 -0.457739 -181.985
lowerback -3.28608 4.67821 -3.58738
upperback -0.0380791 6.33948 -2.9738
thorax 1.74398 3.10559 -0.763318
lowerneck -34.3396 -2.46824 -2.32228
upperneck 40.7387 -7.64467 4.3223
head 24.4635 -3.13589 0.235217
rclavicle 1.83876e-015 -3.37934e-014
rhumerus -32.5858 19.5476 -92.423
rradius 96.1651
rwrist 8.07687
rhand -9.6368 -3.66512
rfingers 7.12502
rthumb 16.3334 -32.9973
lclavicle 1.83876e-015 -3.37934e-014
lhumerus -70.89 -29.3245 92.0062
lradius 96.1996
lwrist -16.3269
lhand -15.6275 7.0587
lfingers 7.12502
lthumb 10.5595 36.7734
rfemur 1.7518 3.21763 23.2265
rtibia 21.3421
rfoot 27.4129 -12.5764
rtoes -12.8783
lfemur -39.8651 -9.7951 -18.1374
ltibia 32.0324
lfoot 8.44338 11.4668
ltoes -11.1399
128
root 1.46042 16.9185 4.61806 -162.862 -0.552755 -181.902
lowerback -3.45805 4.76937 -3.4948
upperback -0.057157 6.46821 -2.96523
thorax 1.82837 3.1702 -0.784864
lowerneck -34.2964 -2.59663 -2.5216
upperneck 40.7492 -7.76012 4.38347
head 24.4898 -3.20288 0.271738
rclavicle 1.81888e-014 -1.74931e-014
rhumerus -32.9042 20.0121 -92.5467
rradius 97.0808
rwrist 8.04896
rhand -9.77791 -3.48598
rfingers 7.12502
rthumb 16.1975 -32.8293
lclavicle 1.81888e-014 -1.74931e-014
lhumerus -71.2545 -29.5827 92.2139
lradius 97.0179
lwrist -16.1589
lhand -15.8951 7.18985
lfingers 7.12502
lthumb 10.3014 36.9176
rfemur 2.51404 2.86601 23.2907
rtibia 21.4172
rfoot 28.6288 -12.9464
rtoes -11.6211
lfemur -39.6159 -10.2272 -17.8858
ltibia 30.77
lfoot 8.61711 11.1829
ltoes -11.6342
129
root 1.44533 16.8871 4.33879 -163.021 -0.646781 -181.753
lowerback -3.57138 4.85749 -3.3425
upperback -0.0637354 6.58936 -2.91879
thorax 1.8955 3.23294 -0.804683
lowerneck -34.2396 -2.70339 -2.70417
upperneck 40.7757 -7.8461 4.42076
head 24.5199 -3.26188 0.300367
rclavicle 1.0635e-014 1.05356e-014
rhumerus -33.2717 20.4292 -92.6733
rradius 97.9728
rwrist 8.01134
rhand -9.90912 -3.31696
rfingers 7.12502
rthumb 16.0712 -32.6705
lclavicle 1.0635e-014 1.05356e-014
lhumerus -71.5452 -29.8322 92.4718
lradius 97.7861
lwrist -16.0126
lhand -16.147 7.3254
lfingers 7.12502
lthumb 10.0583 37.065
rfemur 3.19003 2.54302 23.4232
rtibia 21.7834
rfoot 29.5686 -13.4081
rtoes -10.7367
lfemur -39.3616 -10.5204 -17.6808
ltibia 30.0105
lfoot 8.82855 10.8826
ltoes -12.0264
130
root 1.42958 16.8415 4.06173 -163.232 -0.734318 -181.584
lowerback -3.62742 4.94305 -3.16974
upperback -0.0709635 6.7032 -2.85933
thorax 1.93117 3.29305 -0.82764
lowerneck -34.141 -2.80522 -2.88011
upperneck 40.7884 -7.92198 4.44914
head 24.5187 -3.31908 0.326474
rclavicle -4.87022e-015 -3.51849e-014
rhumerus -33.7143 20.765 -92.8207
rradius 98.8356
rwrist 7.95039
rhand -10.0632 -3.16337
rfingers 7.12502
rthumb 15.9228 -32.5288
lclavicle -4.87022e-015 -3.51849e-014
lhumerus -71.7808 -30.0872 92.7598
lradius 98.5027
lwrist -15.8968
lhand -16.3631 7.45237
lfingers 7.12502
lthumb 9.84983 37.202
rfemur 3.72962 2.25427 23.5782
rtibia 22.5057
rfoot 30.2168 -13.9214
rtoes -10.0445
lfemur -39.0962 -10.6476 -17.5889
ltibia 29.721
lfoot 9.08789 10.4866
ltoes -12.3761
131
root 1.4134 16.7811 3.78703 -163.492 -0.805661 -181.418
lowerback -3.64818 5.01359 -3.01489
upperback -0.0636617 6.79629 -2.78501
thorax 1.9587 3.34279 -0.829099
lowerneck -34.0047 -2.8743 -3.01951
upperneck 40.8028 -7.96794 4.4657
head 24.4978 -3.36392 0.348504
rclavicle 3.13086e-014 -2.44505e-014
rhumerus -34.2092 21.0456 -92.9838
rradius 99.6581
rwrist 7.85467
rhand -10.1788 -3.01699
rfingers 7.12502
rthumb 15.8114 -32.3913
lclavicle 3.13086e-014 -2.44505e-014
lhumerus -71.9285 -30.3015 93.0512
lradius 99.15
lwrist -15.8336
lhand -16.5653 7.52521
lfingers 7.12502
lthumb 9.65482 37.284
rfemur 4.11406 2.00007 23.7241
rtibia 23.6228
rfoot 30.5258 -14.4395
rtoes -9.60774
lfemur -38.7973 -10.5767 -17.6571
ltibia 29.8559
lfoot 9.39897 9.94852
ltoes -11.1622
132
root 1.39687 16.7062 3.51489 -163.785 -0.868579 -181.279
lowerback -3.64637 5.06593 -2.88738
upperback -0.0381212 6.86527 -2.71179
thorax 1.98965 3.3799 -0.819096
lowerneck -33.8996 -2.93123 -3.12815
upperneck 40.7918 -7.98649 4.4606
head 24.4567 -3.39382 0.361501
rclavicle 4.00551e-014 -3.63776e-014
rhumerus -34.7355 21.2581 -93.1568
rradius 100.414
rwrist 7.77782
rhand -10.3272 -2.90747
rfingers 7.12502
rthumb 15.6686 -32.293
lclavicle 4.00551e-014 -3.63776e-014
lhumerus -71.9657 -30.4873 93.3132
lradius 99.7216
lwrist -15.8971
lhand -16.7385 7.54836
lfingers 7.12502
lthumb 9.48767 37.3148
rfemur 4.31963 1.76644 23.8354
rtibia 25.138
rfoot 30.497 -14.9384
rtoes -9.33846
lfemur -38.459 -10.3148 -17.9026
ltibia 30.3725
lfoot 9.7551 9.29396
ltoes -9.20118
